<mxfile host="app.diagrams.net" modified="2024-01-14T10:43:14.821Z" agent="Mozilla/5.0 (Macintosh; Intel Mac OS X 10_15_7) AppleWebKit/537.36 (KHTML, like Gecko) Chrome/120.0.0.0 Safari/537.36" version="22.1.18" etag="lsoXljZLakb5FILU9c-4" type="github">
  <diagram name="페이지-1" id="ZHDPwKxDw1reAqca9izW">
    <mxGraphModel>
      <root>
        <mxCell id="0" />
        <mxCell id="1" parent="0" />
      </root>
    </mxGraphModel>
  </diagram>
</mxfile>
